<?xml version="1.0" encoding="UTF-8" standalone="no"?><!DOCTYPE svg PUBLIC "-//W3C//DTD SVG 1.1//EN" "http://www.w3.org/Graphics/SVG/1.1/DTD/svg11.dtd"><svg width="100%" height="100%" viewBox="0 0 60 57" version="1.1" xmlns="http://www.w3.org/2000/svg" xmlns:xlink="http://www.w3.org/1999/xlink" xml:space="preserve" xmlns:serif="http://www.serif.com/" style="fill-rule:evenodd;clip-rule:evenodd;stroke-linejoin:round;stroke-miterlimit:1.41421;"><g><path d="M36.352,31.081c-2.989,-0.294 -3.794,-2.771 -4.742,-5.106c0.18,0.484 -2.42,2.701 -2.741,3.037c-1.387,1.45 -2.444,2.761 -2.954,4.781c-0.699,2.787 0.531,5.422 3.67,4.665c3.655,-0.884 5.379,-4.237 6.767,-7.377m1.09,-2.96c0.614,-0.108 0.274,-4.184 -2.185,-3.605c-0.736,0.174 0.325,3.923 2.185,3.605m12.938,-8.842c0.036,0.037 0.07,0.077 0.104,0.118c0.912,1.13 -0.778,2.652 -1.379,3.494c-1.142,1.598 -0.965,2.327 -0.466,4.159c0.509,1.86 0.94,3.81 0.949,5.749c0.005,1.166 -0.057,4.087 -1.5,4.488c1.813,0.04 2.874,-1.598 3.839,-2.883c0.527,-0.702 1.021,-1.453 1.663,-2.061c0.531,-0.504 1.383,-0.826 2.025,-1.155c-1.167,0.599 -1.423,2.003 -1.912,3.096c-0.892,1.98 -2.483,3.438 -4.115,4.809c-2.673,2.243 -5.967,4.158 -9.588,4.027c-1.031,-0.039 -2.128,-0.325 -3.002,-0.882c-0.715,-0.458 -1.563,-1.845 -1.718,-2.644c2.894,-0.083 6.542,-0.027 8.645,-2.377c0.964,-1.077 1.4,-2.488 1.637,-3.883c0.083,-0.493 0.195,-5.148 0.273,-5.172c-1.913,0.524 -2.469,2.399 -5.107,2.191c-0.227,-0.018 -2.142,3.574 -2.393,3.937c-2.809,4.092 -7.326,9.213 -12.901,8.317c-4.892,-0.785 -4.509,-5.969 -2.928,-9.483c2.052,-4.563 5.228,-7.989 10.196,-9.335c1.37,-0.374 2.211,-1.583 3.492,-2.08c2.382,-0.926 3.373,1.027 4.04,2.97c0.729,2.12 1.852,4.965 4.059,2.02c1.351,-1.804 1.44,-4.23 2.552,-6.16c0.562,-0.974 2.482,-2.321 3.535,-1.26" style="fill:#fff;fill-rule:nonzero;"/><path d="M20.472,17.127c0.862,-0.599 1.46,-2.016 2.017,-2.871c1.43,-2.206 2.856,-4.42 4.475,-6.496c2.364,-3.037 5.068,-5.873 8.894,-6.921c1.25,-0.341 2.529,-0.572 3.818,-0.681c0.636,-0.054 1.273,-0.081 1.916,-0.074c0.398,0.003 1.713,-0.087 1.102,0.592c-0.421,0.471 -1.04,0.647 -1.609,0.868c-2.187,0.85 -4.208,2.12 -6.032,3.59c-2.374,1.917 -4.537,4.155 -6.11,6.783c-0.456,0.763 -0.861,1.555 -1.233,2.36c-0.19,0.41 -0.371,0.822 -0.548,1.236c-0.708,1.659 0.351,1.542 1.59,1.739c1.789,0.286 2.258,0.629 2.258,2.575l-5.681,0c-1.199,0 -4.063,7.184 -4.549,8.248c-1.374,3.014 -2.603,6.088 -3.907,9.131c-2.443,5.7 -5.247,11.811 -10.097,15.88c-1.301,1.092 -2.74,2.312 -4.257,3.089c-1.542,0.792 -3.26,0.676 -2.105,-1.382c1.367,-2.433 3.428,-4.374 5.249,-6.456c3.137,-3.583 5.295,-7.873 7.308,-12.155c1.462,-3.108 3.234,-6.054 4.799,-9.108c0.927,-1.815 3.587,-5.648 0.946,-7.204c-0.83,-0.491 -1.939,-0.566 -0.904,-1.774c0.706,-0.825 1.762,-0.442 2.526,-0.882c0.045,-0.026 0.09,-0.054 0.134,-0.087" style="fill:#fff;fill-rule:nonzero;"/><path d="M37.786,17.671c0,1.215 -0.981,2.197 -2.194,2.197c-1.214,0 -2.196,-0.982 -2.196,-2.197c0,-1.212 0.982,-2.195 2.196,-2.195c1.213,0 2.194,0.983 2.194,2.195" style="fill:#fff;fill-rule:nonzero;"/><path d="M16.115,47.579c0.061,0.015 0.142,0.022 0.237,0.022c0.351,0 0.566,-0.173 0.566,-0.477c0,-0.301 -0.215,-0.444 -0.532,-0.444c-0.126,0 -0.224,0.009 -0.271,0.023l0,0.876Zm-0.292,-1.087c0.14,-0.023 0.323,-0.043 0.558,-0.043c0.286,0 0.497,0.066 0.629,0.187c0.122,0.107 0.199,0.27 0.199,0.472c0,0.204 -0.06,0.363 -0.173,0.481c-0.158,0.163 -0.405,0.246 -0.688,0.246c-0.088,0 -0.169,-0.003 -0.233,-0.021l0,0.904l-0.292,0l0,-2.226Z" style="fill:#fff;fill-rule:nonzero;"/><path d="M19.753,46.465l0,0.943l1.087,0l0,-0.943l0.296,0l0,2.253l-0.296,0l0,-1.056l-1.087,0l0,1.056l-0.294,0l0,-2.253l0.294,0Z" style="fill:#fff;fill-rule:nonzero;"/><path d="M23.675,47.601c0,0.485 0.261,0.915 0.719,0.915c0.463,0 0.723,-0.424 0.723,-0.934c0,-0.453 -0.233,-0.92 -0.718,-0.92c-0.484,0 -0.724,0.449 -0.724,0.939m1.751,-0.033c0,0.772 -0.471,1.186 -1.048,1.186c-0.597,0 -1.01,-0.465 -1.01,-1.146c0,-0.716 0.441,-1.182 1.041,-1.182c0.618,0 1.017,0.47 1.017,1.142" style="fill:#fff;fill-rule:nonzero;"/><path d="M28.093,46.712l-0.685,0l0,-0.247l1.666,0l0,0.247l-0.689,0l0,2.006l-0.292,0l0,-2.006Z" style="fill:#fff;fill-rule:nonzero;"/><path d="M31.359,47.601c0,0.485 0.261,0.915 0.721,0.915c0.462,0 0.723,-0.424 0.723,-0.934c0,-0.453 -0.234,-0.92 -0.718,-0.92c-0.486,0 -0.726,0.449 -0.726,0.939m1.75,-0.033c0,0.772 -0.47,1.186 -1.043,1.186c-0.601,0 -1.014,-0.465 -1.014,-1.146c0,-0.716 0.44,-1.182 1.043,-1.182c0.618,0 1.014,0.47 1.014,1.142" style="fill:#fff;fill-rule:nonzero;"/><path d="M37.066,48.618c-0.132,0.048 -0.391,0.123 -0.696,0.123c-0.34,0 -0.621,-0.089 -0.841,-0.298c-0.194,-0.186 -0.314,-0.487 -0.314,-0.839c0,-0.67 0.465,-1.162 1.222,-1.162c0.258,0 0.464,0.057 0.56,0.103l-0.072,0.238c-0.12,-0.056 -0.27,-0.097 -0.498,-0.097c-0.547,0 -0.905,0.34 -0.905,0.905c0,0.573 0.341,0.91 0.87,0.91c0.189,0 0.319,-0.029 0.387,-0.062l0,-0.67l-0.455,0l0,-0.236l0.742,0l0,1.085Z" style="fill:#fff;fill-rule:nonzero;"/><path d="M39.659,47.522l0.297,0c0.311,0 0.508,-0.171 0.508,-0.429c0,-0.29 -0.21,-0.418 -0.518,-0.418c-0.14,0 -0.237,0.012 -0.287,0.024l0,0.823Zm-0.29,-1.027c0.146,-0.026 0.359,-0.046 0.556,-0.046c0.311,0 0.514,0.062 0.654,0.184c0.108,0.101 0.176,0.256 0.176,0.432c0,0.293 -0.187,0.489 -0.422,0.57l0,0.01c0.17,0.061 0.275,0.219 0.328,0.454c0.073,0.315 0.124,0.53 0.173,0.619l-0.301,0c-0.035,-0.068 -0.087,-0.257 -0.147,-0.539c-0.066,-0.31 -0.19,-0.427 -0.455,-0.436l-0.272,0l0,0.975l-0.29,0l0,-2.223Z" style="fill:#fff;fill-rule:nonzero;"/><path d="M44.132,47.782l-0.223,-0.65c-0.051,-0.145 -0.085,-0.279 -0.117,-0.409l-0.007,0c-0.033,0.13 -0.067,0.27 -0.115,0.406l-0.219,0.653l0.681,0Zm-0.742,0.227l-0.233,0.709l-0.3,0l0.768,-2.253l0.347,0l0.77,2.253l-0.312,0l-0.24,-0.709l-0.8,0Z" style="fill:#fff;fill-rule:nonzero;"/><path d="M47.223,47.579c0.062,0.015 0.144,0.022 0.241,0.022c0.351,0 0.565,-0.173 0.565,-0.477c0,-0.301 -0.214,-0.444 -0.532,-0.444c-0.126,0 -0.224,0.009 -0.274,0.023l0,0.876Zm-0.29,-1.087c0.141,-0.023 0.324,-0.043 0.558,-0.043c0.286,0 0.495,0.066 0.632,0.187c0.12,0.107 0.196,0.27 0.196,0.472c0,0.204 -0.059,0.363 -0.174,0.481c-0.159,0.163 -0.404,0.246 -0.689,0.246c-0.085,0 -0.165,-0.003 -0.233,-0.021l0,0.904l-0.29,0l0,-2.226Z" style="fill:#fff;fill-rule:nonzero;"/><path d="M50.861,46.465l0,0.943l1.092,0l0,-0.943l0.293,0l0,2.253l-0.293,0l0,-1.056l-1.092,0l0,1.056l-0.292,0l0,-2.253l0.292,0Z" style="fill:#fff;fill-rule:nonzero;"/><path d="M55.113,48.718l0,-0.956l-0.717,-1.297l0.336,0l0.317,0.621c0.083,0.171 0.155,0.308 0.224,0.465l0.004,0c0.062,-0.147 0.143,-0.294 0.229,-0.465l0.324,-0.621l0.326,0l-0.75,1.292l0,0.961l-0.293,0Z" style="fill:#fff;fill-rule:nonzero;"/><path d="M56.953,18.096l0.239,0c0.276,0 0.5,-0.09 0.5,-0.315c0,-0.2 -0.145,-0.333 -0.462,-0.333c-0.131,0 -0.225,0.016 -0.277,0.029l0,0.619Zm-0.015,1.218l-0.504,0l0,-2.169c0.2,-0.026 0.478,-0.064 0.834,-0.064c0.413,0 0.598,0.064 0.744,0.17c0.131,0.093 0.224,0.252 0.224,0.464c0,0.262 -0.198,0.436 -0.45,0.513l0,0.027c0.215,0.068 0.317,0.237 0.383,0.53c0.067,0.329 0.119,0.449 0.157,0.529l-0.528,0c-0.065,-0.08 -0.106,-0.264 -0.173,-0.529c-0.037,-0.225 -0.171,-0.33 -0.447,-0.33l-0.24,0l0,0.859Zm-1.335,-1.125c0,0.967 0.73,1.733 1.695,1.733c0.938,0.014 1.653,-0.766 1.653,-1.719c0,-0.966 -0.715,-1.746 -1.683,-1.746c-0.935,0 -1.665,0.78 -1.665,1.732m3.902,0c0,1.216 -0.979,2.183 -2.221,2.183c-1.244,0 -2.234,-0.967 -2.234,-2.183c0,-1.215 0.99,-2.166 2.248,-2.166c1.228,0 2.207,0.951 2.207,2.166" style="fill:#d8d9da;fill-rule:nonzero;"/></g></svg>